<svg width="17" height="15" viewBox="0 0 17 15" fill="none" xmlns="http://www.w3.org/2000/svg">
<path fill-rule="evenodd" clip-rule="evenodd" d="M0 7.72571C0 7.31149 0.335786 6.97571 0.75 6.97571L15.75 6.97571C16.1642 6.97571 16.5 7.31149 16.5 7.72571C16.5 8.13992 16.1642 8.47571 15.75 8.47571L0.75 8.47571C0.335786 8.47571 0 8.13992 0 7.72571Z" fill="black"/>
<path fill-rule="evenodd" clip-rule="evenodd" d="M9.16877 14.2795C8.87648 13.986 8.87747 13.5112 9.17096 13.2189L14.6873 7.72535L9.17101 2.23278C8.87749 1.94051 8.87646 1.46564 9.16872 1.17212C9.46099 0.878595 9.93586 0.877573 10.2294 1.16983L16.2794 7.19383C16.4207 7.33457 16.5002 7.52581 16.5002 7.72527C16.5002 7.92474 16.4208 8.11598 16.2794 8.25673L10.2294 14.2817C9.93593 14.574 9.46105 14.573 9.16877 14.2795Z" fill="black"/>
</svg>
