<svg width="24" height="24" viewBox="0 0 24 24" fill="none" xmlns="http://www.w3.org/2000/svg">
<path d="M12 23.25C18.203 23.25 23.25 18.203 23.25 12C23.25 5.79703 18.203 0.749998 12 0.749998C5.79703 0.749998 0.75 5.79703 0.75 12C0.75 18.203 5.79703 23.25 12 23.25ZM3.91547 18.3905H7.94213C8.40502 19.9533 9.03657 21.2205 9.78141 22.0694C7.42285 21.5501 5.36602 20.2217 3.91547 18.3905ZM12 1.6875C13.1331 1.6875 14.3101 3.14667 15.0849 5.60944H8.91525C9.69014 3.14667 10.8672 1.6875 12.0002 1.6875H12ZM15.3477 6.54703C15.6997 7.96575 15.9227 9.6472 15.9553 11.5312H8.04464C8.07705 9.64711 8.30026 7.96565 8.65219 6.54703H15.3477ZM22.3007 11.5312H16.8974C16.8665 9.71742 16.6574 8.02659 16.3071 6.54703H20.747C21.6598 8.00583 22.2187 9.70706 22.3007 11.5312ZM11.9999 22.3125C10.8668 22.3125 9.68986 20.8533 8.91497 18.3906H15.0847C14.3098 20.8533 13.1327 22.3125 11.9997 22.3125H11.9999ZM8.65219 17.453C8.30026 16.0342 8.07722 14.3528 8.04464 12.4687H15.9548C15.9224 14.3529 15.6992 16.0343 15.3473 17.453H8.65219ZM16.897 12.4687H22.3003C22.2183 14.293 21.6594 15.9943 20.7466 17.453H16.3067C16.657 15.9733 16.8661 14.2825 16.897 12.4687ZM7.1025 11.5312H1.69922C1.78125 9.70697 2.34009 8.00573 3.25289 6.54703H7.69285C7.34256 8.02669 7.13344 9.71751 7.1025 11.5312ZM7.1025 12.4687C7.13345 14.2826 7.34256 15.9734 7.69285 17.453H3.25289C2.34009 15.9942 1.78125 14.2929 1.69922 12.4687H7.1025ZM14.2186 22.0697C14.9635 21.221 15.595 19.9535 16.0579 18.3907H20.0845C18.6338 20.222 16.577 21.5504 14.2186 22.0697ZM20.0845 5.60953H16.0579C15.595 4.04672 14.9634 2.77945 14.2186 1.93059C16.5772 2.44987 18.634 3.77831 20.0845 5.60953ZM9.78094 1.93059C9.03605 2.77926 8.40455 4.04676 7.94166 5.60953H3.915C5.36574 3.77831 7.42257 2.44987 9.78094 1.93059Z" fill="white"/>
</svg>
