<svg width="26" height="26" viewBox="0 0 26 26" fill="none" xmlns="http://www.w3.org/2000/svg">
<path d="M13.0007 9.18058C11.9881 9.18058 11.0169 9.58285 10.3008 10.2989C9.5848 11.0149 9.18253 11.9861 9.18253 12.9988C9.18253 14.0114 9.5848 14.9826 10.3008 15.6986C11.0169 16.4147 11.9881 16.8169 13.0007 16.8169C14.0134 16.8169 14.9845 16.4147 15.7006 15.6986C16.4166 14.9826 16.8189 14.0114 16.8189 12.9988C16.8189 11.9861 16.4166 11.0149 15.7006 10.2989C14.9845 9.58285 14.0134 9.18058 13.0007 9.18058ZM13.0007 6.63512C14.6885 6.63512 16.3071 7.30557 17.5005 8.49899C18.6939 9.6924 19.3643 11.311 19.3643 12.9988C19.3643 14.6865 18.6939 16.3051 17.5005 17.4985C16.3071 18.6919 14.6885 19.3624 13.0007 19.3624C11.313 19.3624 9.69435 18.6919 8.50094 17.4985C7.30753 16.3051 6.63707 14.6865 6.63707 12.9988C6.63707 11.311 7.30753 9.6924 8.50094 8.49899C9.69435 7.30557 11.313 6.63512 13.0007 6.63512ZM21.2734 6.31694C21.2734 6.73887 21.1058 7.14353 20.8075 7.44188C20.5091 7.74024 20.1045 7.90785 19.6825 7.90785C19.2606 7.90785 18.8559 7.74024 18.5576 7.44188C18.2592 7.14353 18.0916 6.73887 18.0916 6.31694C18.0916 5.895 18.2592 5.49035 18.5576 5.192C18.8559 4.89364 19.2606 4.72603 19.6825 4.72603C20.1045 4.72603 20.5091 4.89364 20.8075 5.192C21.1058 5.49035 21.2734 5.895 21.2734 6.31694ZM13.0007 2.81694C9.85198 2.81694 9.3378 2.82585 7.87289 2.89076C6.87507 2.93785 6.20562 3.07148 5.58453 3.3133C5.03217 3.52712 4.6338 3.78294 4.20998 4.20803C3.81163 4.5929 3.50534 5.06277 3.31398 5.58258C3.07217 6.20621 2.93853 6.87439 2.89271 7.87094C2.82653 9.27603 2.81889 9.7673 2.81889 12.9988C2.81889 16.1475 2.8278 16.6617 2.89271 18.1266C2.9398 19.1231 3.07344 19.7938 3.31398 20.4137C3.53035 20.9673 3.78489 21.3657 4.20744 21.7882C4.63635 22.2158 5.03471 22.4717 5.58198 22.6829C6.21071 22.926 6.88017 23.0609 7.87289 23.1068C9.27798 23.1729 9.76926 23.1806 13.0007 23.1806C16.1494 23.1806 16.6636 23.1717 18.1285 23.1068C19.1238 23.0597 19.7945 22.926 20.4156 22.6855C20.9667 22.4704 21.3676 22.2146 21.7902 21.792C22.2191 21.3631 22.4749 20.9648 22.6862 20.4175C22.928 19.79 23.0629 19.1193 23.1087 18.1266C23.1749 16.7215 23.1825 16.2302 23.1825 12.9988C23.1825 9.85003 23.1736 9.33585 23.1087 7.87094C23.0616 6.87567 22.928 6.20367 22.6862 5.58258C22.4944 5.0633 22.1886 4.59362 21.7914 4.20803C21.4067 3.80947 20.9368 3.50315 20.4169 3.31203C19.7933 3.07021 19.1238 2.93658 18.1285 2.89076C16.7234 2.82458 16.2322 2.81694 13.0007 2.81694ZM13.0007 0.271484C16.4587 0.271484 16.8902 0.284212 18.2469 0.347848C19.6023 0.411484 20.5251 0.62403 21.3371 0.939666C22.1771 1.26294 22.8847 1.70076 23.5923 2.40712C24.2395 3.04335 24.7403 3.81296 25.0598 4.66239C25.3742 5.47312 25.588 6.39712 25.6516 7.75258C25.7114 9.1093 25.728 9.54076 25.728 12.9988C25.728 16.4568 25.7153 16.8882 25.6516 18.2449C25.588 19.6004 25.3742 20.5231 25.0598 21.3351C24.7412 22.185 24.2403 22.9548 23.5923 23.5904C22.9559 24.2373 22.1864 24.7381 21.3371 25.0578C20.5263 25.3722 19.6023 25.586 18.2469 25.6497C16.8902 25.7095 16.4587 25.726 13.0007 25.726C9.54271 25.726 9.11126 25.7133 7.75453 25.6497C6.39907 25.586 5.47635 25.3722 4.66435 25.0578C3.81458 24.739 3.04484 24.2381 2.40907 23.5904C1.76177 22.9543 1.26099 22.1846 0.94162 21.3351C0.625983 20.5244 0.413437 19.6004 0.349801 18.2449C0.289983 16.8882 0.273438 16.4568 0.273438 12.9988C0.273438 9.54076 0.286165 9.1093 0.349801 7.75258C0.413437 6.39585 0.625983 5.47439 0.94162 4.66239C1.2601 3.81244 1.76101 3.04262 2.40907 2.40712C3.04502 1.7596 3.81471 1.25878 4.66435 0.939666C5.47635 0.62403 6.3978 0.411484 7.75453 0.347848C9.11126 0.28803 9.54271 0.271484 13.0007 0.271484Z" fill="white"/>
</svg>
