<svg width="22" height="22" viewBox="0 0 22 22" fill="none" xmlns="http://www.w3.org/2000/svg">
<path fill-rule="evenodd" clip-rule="evenodd" d="M1.75 3.47018C1.75 2.51399 2.51669 1.75 3.44892 1.75H6.71449C7.64672 1.75 8.41341 2.51399 8.41341 3.47018V6.7641C8.41341 7.71947 7.64652 8.48429 6.71449 8.48429H3.44892C2.5169 8.48429 1.75 7.71947 1.75 6.7641V3.47018ZM3.44892 0.25C1.67607 0.25 0.25 1.69781 0.25 3.47018V6.7641C0.25 8.53524 1.67586 9.98429 3.44892 9.98429H6.71449C8.48755 9.98429 9.91341 8.53524 9.91341 6.7641V3.47018C9.91341 1.69781 8.48734 0.25 6.71449 0.25H3.44892ZM13.5864 3.47018C13.5864 2.51399 14.3531 1.75 15.2853 1.75H18.5519C19.4829 1.75 20.2498 2.51378 20.2498 3.47018V6.7641C20.2498 7.71968 19.4827 8.48429 18.5519 8.48429H15.2853C14.3533 8.48429 13.5864 7.71947 13.5864 6.7641V3.47018ZM15.2853 0.25C13.5125 0.25 12.0864 1.69781 12.0864 3.47018V6.7641C12.0864 8.53524 13.5123 9.98429 15.2853 9.98429H18.5519C20.3242 9.98429 21.7498 8.53503 21.7498 6.7641V3.47018C21.7498 1.69801 20.324 0.25 18.5519 0.25H15.2853ZM3.44892 13.5157C2.5169 13.5157 1.75 14.2795 1.75 15.2369V18.5298C1.75 19.486 2.51669 20.25 3.44892 20.25H6.71449C7.64672 20.25 8.41341 19.486 8.41341 18.5298V15.2369C8.41341 14.2795 7.64652 13.5157 6.71449 13.5157H3.44892ZM0.25 15.2369C0.25 13.4637 1.67586 12.0157 3.44892 12.0157H6.71449C8.48755 12.0157 9.91341 13.4637 9.91341 15.2369V18.5298C9.91341 20.3022 8.48734 21.75 6.71449 21.75H3.44892C1.67607 21.75 0.25 20.3022 0.25 18.5298V15.2369ZM13.5864 15.2369C13.5864 14.2795 14.3533 13.5157 15.2853 13.5157H18.5519C19.4827 13.5157 20.2498 14.2793 20.2498 15.2369V18.5298C20.2498 19.4862 19.4829 20.25 18.5519 20.25H15.2853C14.3531 20.25 13.5864 19.486 13.5864 18.5298V15.2369ZM15.2853 12.0157C13.5123 12.0157 12.0864 13.4637 12.0864 15.2369V18.5298C12.0864 20.3022 13.5125 21.75 15.2853 21.75H18.5519C20.324 21.75 21.7498 20.302 21.7498 18.5298V15.2369C21.7498 13.4639 20.3242 12.0157 18.5519 12.0157H15.2853Z" fill="black"/>
</svg>
