<svg width="27" height="22" viewBox="0 0 27 22" fill="none" xmlns="http://www.w3.org/2000/svg">
<path d="M26.9342 2.92493C25.9625 3.35472 24.9321 3.63698 23.8771 3.76238C24.9891 3.0973 25.8215 2.05058 26.2189 0.817289C25.1753 1.43838 24.0311 1.87365 22.8386 2.10911C22.0375 1.25203 20.9757 0.683606 19.8183 0.492215C18.6609 0.300825 17.4727 0.497187 16.4383 1.05078C15.404 1.60436 14.5816 2.48416 14.0989 3.55339C13.6162 4.62262 13.5002 5.82137 13.7691 6.96329C11.6527 6.85721 9.58225 6.30723 7.69219 5.34904C5.80213 4.39086 4.13471 3.0459 2.79819 1.40147C2.3251 2.21404 2.07649 3.13776 2.07782 4.07802C2.07782 5.92347 3.0171 7.55384 4.4451 8.50838C3.60002 8.48178 2.77354 8.25356 2.03455 7.84275V7.90893C2.03481 9.138 2.46011 10.3292 3.23836 11.2805C4.0166 12.2318 5.09989 12.8846 6.30455 13.1284C5.52006 13.341 4.69749 13.3723 3.8991 13.22C4.23875 14.278 4.90074 15.2032 5.7924 15.8662C6.68405 16.5291 7.76072 16.8967 8.87164 16.9173C7.76753 17.7844 6.50332 18.4255 5.15131 18.8037C3.79929 19.1819 2.38599 19.29 0.992188 19.1217C3.42526 20.6864 6.25758 21.5171 9.15037 21.5144C18.9415 21.5144 24.2958 13.4033 24.2958 6.36893C24.2958 6.13984 24.2895 5.9082 24.2793 5.68165C25.3215 4.92841 26.221 3.99531 26.9355 2.9262L26.9342 2.92493Z" fill="white"/>
</svg>
